<svg xmlns="http://www.w3.org/2000/svg" viewBox="0 0 100 100">
    <style>
        path {
            fill: #000;
        }
        @media (prefers-color-scheme: dark) {
            path {
                fill: #fff;
            }
        }
    </style>
    <g fill-rule="evenodd">
        <path d="M33.3 83.8c1.07-.31.92-.2 2.24-.6.74-.24 1.46-.56 2.2-.84.34-.13.67-.2.99-.08.12.05.33.06.48 0 1.84-.58 1.34-.22 3.13-.95.2-.1 5.93-1.91 6.4-2.06.5-.18 1.04-.32 1.54-.5 1.87-.71 3.8-1.2 5.72-1.72l2.26-.65c.47-.13.9-.3 1.18-.66.07-.1 4.75-1.65 4.9-1.7.29-.1.59-.21.88-.25 1.07-.14 2.1-.52 3.13-.82 1.8-.52 3.64-.8 5.44-.95.8-.07 1.59.04 2.37.08.44.02.88.07 1.32.1a8.1 8.1 0 0 0 2.58-.13c.24-.05.47-.07.7-.1.15-.03.33.1.29.22l-.2.5c-.34.75-1 1.27-2.07 1.48-.88.18-1.73.57-2.62.64-.94.4-1.91.68-2.9.92-.22.05-.46.19-.62.33-.32.26-.68.42-1.1.54-.75.22-1.48.5-2.2.82a9.9 9.9 0 0 1-1.15.48c-.98.32-1.91.7-2.76 1.24l-.15.08c-1.95.8-3.9 1.6-5.94 2.12-.88.23-1.7.54-2.52.89a.16.16 0 0 0-.08.1c0 .04-9.5 3.02-9.64 3.06-.58.14-1.16.27-1.74.43-1.34.37-2.65.82-4 1.13-.3.07-.58.16-.85.29-.65.3-1.35.49-2.05.7l-2.08.58c-.24.07-.47.17-.7.2-1.26.12-2.43.62-3.64.97-.58.17-1.14.34-1.74.4-.61.08-1.06.53-1.64.69l-1.05.28-1.58.39c-.52.14-1.03.29-1.57.34-.4.05-.83.14-1.23.26-2.03.64-4.08.88-6.13 1.14-.57.08-1.14.04-1.7.02-.54-.02-.9-.23-1.1-.56-.2-.3-.14-.5.29-.8.28-.2.59-.36.86-.57.94-.72 2.03-1.3 3.17-1.84a90 90 0 0 1 4.26-1.87c1.06-.43 1.5-.43 2.58-.82.28-.1 1.44-.77 1.44-.77 1.14-.55 2.36-.9 3.56-1.27l2.84-.91m19.58-22.18-.13-2.31c-.03-.66.1-1.3.3-1.9.6-1.81.8-2.46.83-3.51.05-2.2.12-9.4-.22-11.58-.2-1.33-.2-2.7-.25-4.04-.03-1.03 0-2.06 0-3.1 0-.25.04-.51 0-.76-.15-.9-.02-1.8-.06-2.7-.08-1.8 0-8.3.22-10.1.13-1.1.06-2.2.16-3.28.14-1.67.26-3.34.77-4.95.1-.3.12-.62.18-.94.02-.16-.22-.37-.4-.34a5.4 5.4 0 0 0-1.8.65c-1.05.64-1.21.24-2.24.9-.81.54-1.65 1.02-2.46 1.54-.6.38.5-.83.1-.22-.4.6-.44.6-1.01 1.05-.52.4-.95.87-1.16 1.52-.15.46-.5.73-1 .8-.11.02-.24.08-.37.07-.83-.01-1.47.3-2 .95-.36.42-.9.46-1.45.35-.23-.05-.47-.4-.38-.56.22-.4.4-.81.65-1.18.37-.53.79-1.03 1.2-1.52.76-.88-.13-.1.64-.97a31.47 31.47 0 0 1 4.35-4.01c.55-.44 1.12-.87 1.68-1.3 1.9-1.47 3.02-1.7 5.23-2.65 1.99-.84 4.07-1.31 6.13-1.88.43-.12.9-.15 1.34-.2.52-.07 1.06-.04 1.55-.2 1.4-.4 2.83-.24 4.24-.11 1.85.17 3.48.88 4.84 2.2.97.96 1.99 1.84 2.6 3.07.3.57.9.93 1.17 1.54.22.53.5 1.04.74 1.57.23.5.8.88.67 1.55.22.47.45.92.65 1.4.1.23.1.5.16.75.07.38.1.77.2 1.14.38 1.32.29 2.68.33 4.03 0 .3-.1.63-.13.95-.08.57-.2 5.86-.2 6.44A6.52 6.52 0 0 1 78 32.2a4.39 4.39 0 0 0-.43 1.66.8.8 0 0 1-.07.38c-.86 1.43-1.3 3.08-2.27 4.44-.15.2-.33.4-.53.56-1.32 1.12-2.58 2.34-4.2 3.07-.17.08-.31.23-.46.36-.8.65-1.3.6-.57 2.05.14.28.22.6.33.9.25.67.55 1.3 1.02 1.85a11.2 11.2 0 0 1 2 3.72c.1.3.57.7.79.9 1.07 1.06 1.86 2.5 2.82 3.39.28.26.57.54.76.86.45.8.57.82 1.4 1.52a44 44 0 0 0 3.07 2.37c.84.6 1.7 1.2 2.64 1.6 1.24.57 2.57.94 3.95.9a4.7 4.7 0 0 0 1.89-.4c1.66-.76 4.17-3.43 5.5-4.7.95-.9 1.68-3.61 2.12-4.86.03-.07.18-.12.29-.15.03-.01.12.07.13.12.1.3.25.6.3.92.17 1.22-.2 4.1-.17 5.3-.5 1.4-1.94 4.5-3.3 5.4-.64.42-1.32.83-1.76 1.5a13.76 13.76 0 0 1-5.6 2.59c-.87.15-1.8.16-2.7.1-4-.2-5.85.09-9.06-2.26-2.04-1.5-6.6-6.43-6.83-6.74-1.46-1.96-2.77-5-3.87-6.97-1.28-2.31-2.58-4.61-3.6-7.05-.17-.4-.43-.63-.84-.73-.16-.04-.44.12-.44.26-.03 1.6-.43 8.22-.24 9.83-.15.9-.21 1.8-.07 2.69.26 1.67-.04 5 .14 6.68.02.25-.06.5-.1.76-.06.57-.17 1.15-.17 1.73a4.8 4.8 0 0 1-.66 2.38c-.5.88-.52 1.3-1.93 1.06a2.17 2.17 0 0 0-.77 0c-.9.18-1.5-.26-2.02-.88a5.79 5.79 0 0 1-1.16-2.2c-.35-1.26-.4-4.21-.46-5.5m9.24-50.42-1.94.1c-.45.05-.7.28-.77.74-.13.69-.33 1.39-.2 2.1.2 1 .1 2.04.09 3.06-.01.7-.01 1.4-.08 2.1.4.97.1 2.04.43 3.02.06 1.6.13 7.92.19 9.52 0 .13-.06.25-.08.38a2.3 2.3 0 0 0 .25 1.5c.1.22.24.44.5.53.32.1.64.19.92.34 1.07.59 2.2 1.1 2.84 2.25.2.37.66.36 1 .05.82-.74 1.5-1.6 2.07-2.54.65-1.04 1.37-2.18 1.42-3.43.08-1.93.32-8.56.5-10.48a17 17 0 0 0-.1-3.46c-.15-1.38-.9-2.62-1.61-3.78a3.98 3.98 0 0 0-3.68-2.1l-1.75.1M1 69.4c.06-1.18.16-1 .18-2.47 0-.83-.12-1.67-.18-2.5-.03-.4.02-.75.37-1.03a.75.75 0 0 0 .25-.5c0-2.05.3-3.1.07-5.16-.03-.25-.1.16-.24-.04-.42-.65-.88-1.28-1.3-1.92-.14-.2-.21-1.1-.08-1.38.45-1 .84-1.35 1.3-2.35.22-.48.33-.96.32-1.5 0-.56.04-1.15 0-1.72-.16-2.13.07-4.25.2-6.37.05-.83.09-1.67.12-2.5.03-.53 0-1.03-.43-1.43-.13-.1-.17-5.37-.18-5.55a2.8 2.8 0 0 1 .05-.96c.3-1.14.24-2.3.3-3.45.1-2.01.58-3.95 1.24-5.84.29-.84.84-1.6 1.3-2.37.25-.45.55-.87.83-1.3a6.5 6.5 0 0 0 1.06-2.68c.03-.25.12-.5.19-.75.04-.15.34-.28.48-.2l.67.37c.99.59 1.46 1.43 1.26 2.59-.17.95.02 1.94-.33 2.87.18 1.08.1 2.16-.02 3.25-.02.24.07.52.2.73.24.4.3.83.3 1.3-.04.83.02 1.66.17 2.49.09.44.14.9.15 1.34 0 1.1.15 2.18.54 3.2l.06.19c.25 2.24.52 4.48.3 6.73-.08.97 0 1.9.13 2.85 0 .05.07.1.12.12.06.02.13 0 .19-.02a.4.4 0 0 0 .14-.12c1.16-1.94 2.52-3.75 3.8-5.6.04-.05.09-.1.1-.16 1.04-2.04 2.69-3.63 4.06-5.41.12-.15.28-.28.4-.43.6-.83 1.15-1.72 1.86-2.46.7-.75 1.4-1.51 2.06-2.3.25-.3.49-.6.7-.93 1.36-2.2 2.52-3.96 3.85-6.17.47-.78 1.07-1.45 1.6-2.18.74-.98 1.5-1.94 2.22-2.93.34-.47.68-.96.9-1.5a9.8 9.8 0 0 1 1.63-2.6c.5-.58.9-1.24 1.34-1.9l2.1-3.23c.03-.04.13-.05.2-.04.04 0 .1.04.12.08.15.42.1.88.36 1.28.1.13.08.37.03.55-.13.5-.24 1-.56 1.43-.65.85-.96 1.8-.85 2.87.03.33-.1.63-.33.88-.17.18-.41.37-.46.6-.14.58-.51 1.02-.77 1.52-.32.63-.76 1.2-.93 1.9-.1.5-.26 1-.5 1.46-.2.38-.6.67-.84 1.04-.3.42-.58.86-.8 1.33-.2.47-.46.9-.78 1.32-.26.35-.27.35-.4.77-.2.7-.6 1.28-1 1.87l-3.03 4.7c-.6 1.66-1.78 2.98-2.73 4.43-.46.7-.9 1.4-1.15 2.22-.14.43-.4.8-.64 1.18-.66.95-1.15 2-1.92 2.89-.52 1.4-1.42 2.59-2.26 3.8-.11.16-.2.34-.28.5a20.53 20.53 0 0 1-2.51 4.13c-.23.29-.2.6.02.89.27.36.57.7.83 1.06.3.42.63.83.87 1.28.38.75.82 1.46 1.33 2.13.23.3.4.66.53 1.02.23.69.56 1.32 1.02 1.86.75.9 1.29 1.93 1.82 2.95 1.1 2.12 1.6 2.67 2.93 4.66a23.1 23.1 0 0 0 2.44 3.22c.4.42.73.9 1.1 1.34.82 1 .75 1.19 1.8 1.97.66.9 1.63 1.46 2.56 2.03a9.13 9.13 0 0 0 4.6 1.38 5.87 5.87 0 0 0 4-1.21c.2-.16.43-.3.66-.4.08-.03.3.06.3.1.03.39.13.82 0 1.14-.3.77-.6 1.57-1.14 2.23-.2.24-.43.53-.71.63-1.5.58-2.94 1.35-4.56 1.64-2.2.4-4.4.26-6.54-.35a17.47 17.47 0 0 1-7.37-4.13 7.6 7.6 0 0 1-.65-.72c-1.35-1.65-1.83-2.48-3.2-4.1a19.36 19.36 0 0 1-3.8-6.37c-.43-1.07-.72-2.2-1.13-3.28-.56-1.44-1.17-2.86-1.76-4.3-.1-.23-.22-.46-.36-.67-.06-.1-.2-.13-.32-.16-.14-.05-.26.02-.28.18-.08.64-.16 1.28-.2 1.92-.1 1.47-.05 2.96-.25 4.43-.04.3-.04 2.32.02 2.63.16.77.09 1.54.05 2.3-.03.78-.08 1.55-.12 2.32-.02.26.02.53-.06.77-.43 1.32-.24 6.03-.3 7.37-.03.65-.04 1.27-.23 1.9-.2.65.27 1.25.23 1.9-.02.38-.06.77-.1 1.15-.05.58-.13 1.15-.17 1.73-.04.58-.07 1.15-.25 1.7-.14.43-.21.9-.22 1.34-.03 2.28-.68 4.44-1.3 6.6-.16.6-.5 1.17-.81 1.74-.3.54-.8.82-1.4.93-.56.1-.84-.02-1.08-.56-.16-.35-.28-.72-.46-1.06-.65-1.2-.97-2.5-1.26-3.83a56.08 56.08 0 0 1-.76-4.95c-.14-1.22-.3-2.43-.37-3.65-.02-.32-.03-.64-.1-.96C.9 78.62 1 77.28 1 75.93v-6.54"/>
        <path d="M86.44 54.98c-1.45.25-2.84-.4-4.08-1.53a4.92 4.92 0 0 1-.98-1.22c-.7-1.3-1.37-2.63-1.72-4.1a8.38 8.38 0 0 1-.25-2.85c.1-.9.2-1.78.17-2.68-.02-.6.05-1.22.22-1.78.28-.98.37-2 .43-3 .03-.37 0-.77.15-1.07.3-.6.23-1.27.5-1.87.24-.53.43-1.1.67-1.63.07-.15.22-.3.36-.35.4-.17.8-.36 1.12-.72a7.74 7.74 0 0 1 3.75-2.12c.48-.14.96-.26 1.44-.37.4-.1.77.02 1.1.26.2.13.36.28.53.44.3.3.62.48 1 .59.85.23 1.5.75 1.92 1.6a.8.8 0 0 0 .32.4c.12.1.33.17.45.1.29-.13.75.09.99-.15.43 0 .6.03 1.17-.62.9-1.05.7-.22 1.57-1.52.86-.73 1.37-1.25 2.22-2 .22-.18.42-.07.45.23.05.48.12.95-.03 1.43-.04.98-.03 1.34-.04 1.7-.3 1.35-.22.64-.65 1.9-.2.96-.43 1.18-.86 1.78-.82 1.05-1.02 1.62-2.15 2.29-.72.42-.68.2-1.37.69-.3.2-.47.52-.46.9.03 1.4-.23 2.74-.52 4.08-.07.3-.08.58 0 .88.07.23.03.49.07.72a6.72 6.72 0 0 1-.46 3.5c-.2.56-.41 1.12-.56 1.7a4.4 4.4 0 0 1-1.9 2.6c-.45.33-.94.6-1.4.92-.75.55-1.57.85-2.48.84-.16 0-.33 0-.7.03M85 42.47h-.08c.05.83.05 1.66.15 2.49.09.82.3 1.62.4 2.45.13 1.15.65 2.14 1.04 3.19.15.4.5.73.8 1.03.6.6 1.5.55 2.04-.1a4.8 4.8 0 0 0 1.12-2.36c.2-1.2.44-2.36.78-3.51a8.8 8.8 0 0 0 .38-3.8c-.07-.57 0-1.2 0-1.8v-1.12c-.01-.26-.32-.57-.57-.55-1.67.1-3.32-.07-4.96-.38-.84-.15-1.16.16-1.2 1.07-.02.45-.02.9 0 1.36.02.68.06 1.35.1 2.03m1.86-9.27c-.46 0-.68.3-.61.7.2 1.06.99 1.55 1.99 1.23.07-.02.17-.22.14-.28a4.95 4.95 0 0 0-1.15-1.5c-.11-.1-.3-.13-.37-.15M31.05 59.74c-.24-1.3-.1-2.77-.1-4.24v-2.31c-.03-1.3.04-2.57.4-3.8.24-.73.4-1.47.38-2.25a4.5 4.5 0 0 1 .64-2.36c.36-.65.7-1.31 1.13-1.93.76-1.14 1.62-2.16 2.88-2.68.37-.16.73-.44 1.02-.74a4.45 4.45 0 0 1 2.72-1.2c.23-.04.47-.03.7-.06.48-.04.95-.2 1.4-.14.62.08 1 .66 1.52 1a6.4 6.4 0 0 1 1.8 1.88c.13.2.24.49.43.6.85.55.97 1.39.94 2.33 0 .3.09.63.14.95.03.15.29.3.42.26a6.31 6.31 0 0 0 2-1.14c.12-.1.4 0 .47.15.05.1.14.22.16.34.05.25.05.5.1.76.3 1.22-.2 2.1-1 2.86-.47.47-.97.9-1.43 1.4-.3.3-.48.7-.4 1.2.2 1.16.15 2.3-.07 3.44-.13.7-.14 1.4.02 2.1.17.77.09 1.53-.1 2.28-.17.68-.33 1.36-.43 2.05-.14.95-.38 1.88-.53 2.82a4.57 4.57 0 0 1-1.5 2.7 9 9 0 0 1-7.01 2.57c-2.48-.15-4.4-1.5-5.52-4.01-.52-1.15-1-3.08-1.18-4.83m6.14-1.13c.03 1.25.43 2.47.85 3.68.4 1.13 1.1 2 2.16 2.47.35.16.69.16 1.04.05a2.58 2.58 0 0 0 1.56-1.45 16.13 16.13 0 0 0 1.68-5.6c.03-.46.05-.91.16-1.34.3-1.24.3-2.54.47-3.8.06-.43-.02-.9-.06-1.34-.02-.23-.3-.47-.51-.44-.4.05-.82.1-1.22.2a7.4 7.4 0 0 1-5.2-.57c-.33-.17-.66-.3-1-.46-.22-.1-.44.09-.45.38-.01.2-.05.4-.03.58a9.7 9.7 0 0 1-.1 3.44 3.7 3.7 0 0 0 .2 2.08c.28.67.33 1.37.45 2.12m4.2-18.34c-.68.09-1.24.46-1.44 1.02-.2.52-.34 1.07-.47 1.63-.04.17-.02.38.04.55.45 1.53.57 1.66 1.99 2.15l2.03.67c.17.05.35.08.52.1.48.08.92-.42.85-.95a3.8 3.8 0 0 0-.18-.74c-.22-.6-.47-1.18-.72-1.76-.08-.18-.14-.37-.26-.5a65.4 65.4 0 0 0-1.92-2.02c-.1-.12-.32-.12-.44-.15m54.9 5.69a1.85 1.85 0 0 0 3.7 0c0-1.02-.82-1.84-1.85-1.84-1.02 0-1.85.82-1.85 1.84Zm.24 0a1.61 1.61 0 0 1 3.23 0c0 .88-.72 1.6-1.62 1.6a1.6 1.6 0 0 1-1.6-1.6Zm.78 1h.4v-.86h.47c.34 0 .4.16.42.43.03.37.04.42.1.44h.48v-.08c-.13-.02-.16-.1-.18-.44-.03-.3-.1-.43-.32-.5v-.02a.48.48 0 0 0 .37-.47c0-.4-.28-.6-.7-.6H97.3v2.1Zm.4-1.76h.6c.22 0 .35.13.35.3 0 .16-.13.28-.36.28h-.6v-.58Z"/>
    </g>
</svg>